{"title":"NE-YO - One In A Million [KingPinVideos]","uid":5817659,"size":86337035,"categoryP":"video","categoryS":"music_videos","magnet":"?xt=urn:btih:f3dfdcc073c59bb282aac2c9d3ebe240786e7316&amp;dn=NE-YO+-+One+In+A+Million+%5BKingPinVideos%5D&amp;tr=udp%3A%2F%2Ftracker.openbittorrent.com%3A80&amp;tr=udp%3A%2F%2Fopen.demonii.com%3A1337&amp;tr=udp%3A%2F%2Ftracker.coppersurfer.tk%3A6969&amp;tr=udp%3A%2F%2Fexodus.desync.com%3A6969","seeders":0,"leechers":0,"uploader":"KingPinMan","files":5,"time":1283921921,"description":"[img]http://a.imageshack.us/img96/7834/neyoone.png[/img]\n\n[img]http://a.imageshack.us/img16/1130/neyoone2.png[/img]\n\n[code]General\nComplete name                    : NE-YO - One In A Million [KingPinVideos].mpg\nFormat                           : MPEG-PS\nFile size                        : 82.3 MiB\nDuration                         : 4mn 1s\nOverall bit rate                 : 2 856 Kbps\nWriting library                  : encoded by TMPGEnc 4.0 XPress Version. 4.7.4.299\n\nVideo\nID                               : 224 (0xE0)\nFormat                           : MPEG Video\nFormat version                   : Version 1\nFormat settings, BVOP            : Yes\nFormat settings, Matrix          : Default\nDuration                         : 4mn 1s\nBit rate mode                    : Constant\nBit rate                         : 2 615 Kbps\nNominal bit rate                 : 2 700 Kbps\nWidth                            : 384 pixels\nHeight                           : 208 pixels\nDisplay aspect ratio             : 16:9\nFrame rate                       : 29.970 fps\nResolution                       : 8 bits\nScan type                        : Progressive\nBits/(Pixel*Frame)               : 1.092\nStream size                      : 75.4 MiB (92%)\nWriting library                  : TMPGEnc XPress 4.7.4.299\n\nAudio\nID                               : 192 (0xC0)\nFormat                           : MPEG Audio\nFormat version                   : Version 1\nFormat profile                   : Layer 2\nDuration                         : 4mn 1s\nBit rate mode                    : Constant\nBit rate                         : 128 Kbps\nChannel(s)                       : 2 channels\nSampling rate                    : 48.0 KHz\nStream size                      : 3.69 MiB (4%)[/code]","torrent":{"xt":"urn:btih:f3dfdcc073c59bb282aac2c9d3ebe240786e7316","amp;dn":"NE-YO+-+One+In+A+Million+%5BKingPinVideos%5D","amp;tr":["udp%3A%2F%2Ftracker.openbittorrent.com%3A80","udp%3A%2F%2Fopen.demonii.com%3A1337","udp%3A%2F%2Ftracker.coppersurfer.tk%3A6969","udp%3A%2F%2Fexodus.desync.com%3A6969"],"infoHash":"f3dfdcc073c59bb282aac2c9d3ebe240786e7316","infoHashBuffer":{"type":"Buffer","data":[243,223,220,192,115,197,155,178,130,170,194,201,211,235,226,64,120,110,115,22]},"announce":[],"urlList":[]}}